<?xml version="1.0" encoding="UTF-8" standalone="no"?>
<svg
   version="1.1"
   id="svg4769"
   sodipodi:docname="tappyPlane_vector.svg"
   width="87.403503"
   height="72.549988"
   xmlns:inkscape="http://www.inkscape.org/namespaces/inkscape"
   xmlns:sodipodi="http://sodipodi.sourceforge.net/DTD/sodipodi-0.dtd"
   xmlns="http://www.w3.org/2000/svg"
   xmlns:svg="http://www.w3.org/2000/svg">
  <sodipodi:namedview
     id="namedview4771"
     pagecolor="#ffffff"
     bordercolor="#000000"
     borderopacity="0.25"
     inkscape:showpageshadow="2"
     inkscape:pageopacity="0.0"
     inkscape:pagecheckerboard="0"
     inkscape:deskcolor="#d1d1d1"
     showgrid="false" />
  <defs
     id="defs3781" />
  <g
     id="g5869"
     transform="translate(-218.99649,-309)">
    <path
       stroke="none"
       fill="#eec830"
       d="m 251.35,320.7 -2.85,0.25 q -2.1,-0.1 -3.6,-1.65 l -0.6,-0.7 q -0.95,-1.95 -0.45,-3.55 0.35,-0.85 1.05,-1.55 1.5,-1.5 3.6,-1.5 h 38.2 q 2.1,0 3.6,1.5 1.5,1.5 1.5,3.6 0,2.1 -1.5,3.6 -1.5,1.5 -3.6,1.3 l -3.2,-0.3 -2.3,-0.25 -0.65,-0.05 -4.5,-0.5 -3.05,-0.25 -10.8,-0.4 -3,0.05 -4.95,0.2 -2.9,0.2 m -21.3,19.05 -0.35,0.05 q -2.05,0.3 -3.55,-0.5 -1.6,-0.9 -1.6,-2.4 0,-0.75 0.4,-1.4 0.4,-0.7 1.2,-1.25 1.55,-1.1 3.65,-1.1 l 11.9,-0.05 q 1.05,0 1.75,0.7 0.65,0.65 0.6,1.65 0,1 -0.75,1.75 -0.75,0.8 -1.85,0.95 l -11.4,1.6 m 53.3,8.45 h 3.35 q 2.1,0 3.6,1.5 1.5,1.5 1.5,3.6 0,2.1 -1.5,3.6 -1.5,1.5 -3.6,1.3 l -1.95,-0.2 -2.8,-0.25 -0.75,-0.1 -2.35,-0.25 -20.5,-0.85 -2.4,0.05 -7.45,0.55 q -2.1,-0.1 -3.6,-1.65 l -0.6,-0.7 q -0.95,-1.95 -0.45,-3.55 0.35,-0.85 1.05,-1.55 1.5,-1.5 3.6,-1.5 h 3.25 2.95 4 3 0.7 1.5 9.5 2.95 2.65 1.35 3"
       id="path3871" />
    <path
       stroke="none"
       fill="#9f882a"
       d="m 283.5,321.7 3.2,0.3 q 2.1,0.2 3.6,-1.3 1.5,-1.5 1.5,-3.6 0,-2.1 -1.5,-3.6 -1.5,-1.5 -3.6,-1.5 h -38.2 q -2.1,0 -3.6,1.5 -0.7,0.7 -1.05,1.55 -0.5,1.6 0.45,3.55 l 0.6,0.7 q 1.5,1.55 3.6,1.65 l 2.85,-0.25 2.25,8.5 -11.05,0.35 q -7.45,-8.15 -15.9,-6.05 -2.55,0.65 -3.7,2.05 -1.35,1.7 -0.75,4.4 l 0.75,2.25 q 0.75,1.75 2,3.3 -0.4,0.65 -0.4,1.4 0,1.5 1.6,2.4 1.5,0.8 3.55,0.5 l 0.35,-0.05 3.7,3.4 0.9,0.9 q 5.65,5.9 9.75,13.3 l 1.85,2.95 q -1.45,0 -2.75,0.8 -2.15,1.25 -2.8,3.65 l -0.15,0.8 h 0.15 l 0.55,0.55 -2.2,0.75 -0.3,-0.45 q -0.25,-0.5 -0.15,-1.1 l 0.15,-1 0.05,-0.05 q 0.85,-3.2 3.7,-4.85 l 0.6,-0.35 -0.45,-0.7 q -3.95,-7.15 -9.4,-12.85 l -0.05,-0.05 -0.85,-0.85 -2.95,-2.75 q -2.4,0.2 -4.2,-0.75 v -0.05 q -2.75,-1.55 -2.65,-4.15 0,-0.55 0.15,-1.1 -0.95,-1.35 -1.6,-2.8 v -0.05 l -0.8,-2.5 -0.05,-0.05 q -0.85,-3.75 1.15,-6.1 1.45,-1.9 4.75,-2.75 h 0.05 q 9.1,-2.4 17.2,5.95 l 7.6,-0.25 -1.15,-4.4 -1.15,0.1 h -0.3 q -2.9,-0.15 -4.9,-2.25 v 0.05 l -0.8,-0.95 -0.2,-0.3 q -1.35,-2.8 -0.55,-5.05 L 242,314.3 q 0.5,-1.2 1.5,-2.2 2.05,-2.1 5,-2.1 h 38.2 q 2.95,0 5.05,2.1 2.05,2.05 2.05,5 0,2.95 -2.05,5.05 -2.2,2.15 -5.25,1.85 l -1.55,-0.15 -1.1,4.2 -2.05,-0.1 1.7,-6.25 M 268,374.35 q -4.05,-0.7 -8.2,-1.9 -3.35,-0.95 -6.2,-2.6 l -0.75,-0.45 h -0.05 l -0.15,1 -1.7,-1.65 0.9,-0.2 0.15,0.05 0.25,-0.75 0.2,-1.15 q 3.55,2.55 7.9,3.8 l 7.65,1.8 v 2.05"
       id="path3873" />
    <path
       stroke="none"
       fill="#b2b4c2"
       d="m 284.5,336.4 q 0.5,-0.5 0.5,-1.25 0,-0.75 -0.5,-1.3 -0.55,-0.5 -1.3,-0.5 -0.75,0 -1.25,0.5 -0.55,0.55 -0.55,1.3 0,0.75 0.55,1.25 0.5,0.55 1.25,0.55 0.75,0 1.3,-0.55 m -3.2,-6.5 8.45,0.65 0.75,0.1 q 2.6,0.35 3.9,2.9 v 0.05 l 0.6,1.7 q 1.45,4.2 2.15,8.35 l 0.55,5.1 q 0.3,4.75 -0.4,9.5 -0.7,4.5 -2.3,8.9 l -0.6,1.6 -0.05,0.1 q -1.4,2.45 -3.9,3.1 l -0.5,0.1 -1.4,0.3 v 0.05 l -2.05,0.3 v -0.45 q 0,-3.4 -2.45,-5.85 -2.4,-2.4 -5.85,-2.4 l 0.65,-6.6 2.35,0.25 0.75,0.1 q -0.55,0.45 -0.55,1.25 0,0.7 0.55,1.25 0.5,0.55 1.25,0.55 0.75,0 1.3,-0.55 0.5,-0.55 0.5,-1.25 l -0.25,-1 1.95,0.2 q 2.1,0.2 3.6,-1.3 1.5,-1.5 1.5,-3.6 0,-2.1 -1.5,-3.6 -1.5,-1.5 -3.6,-1.5 h -3.35 l -3.5,-13 1.45,-5.3"
       id="path3875" />
    <path
       stroke="none"
       fill="#9698a6"
       d="m 284.5,336.4 q -0.55,0.55 -1.3,0.55 -0.75,0 -1.25,-0.55 -0.55,-0.5 -0.55,-1.25 0,-0.75 0.55,-1.3 0.5,-0.5 1.25,-0.5 0.75,0 1.3,0.5 0.5,0.55 0.5,1.3 0,0.75 -0.5,1.25 m 0.25,21.6 0.25,1 q 0,0.7 -0.5,1.25 -0.55,0.55 -1.3,0.55 -0.75,0 -1.25,-0.55 -0.55,-0.55 -0.55,-1.25 0,-0.8 0.55,-1.25 l 2.8,0.25"
       id="path3877" />
    <path
       stroke="none"
       fill="#8a8b98"
       d="m 281.8,327.95 2.05,0.1 0.6,0.05 5.5,0.45 0.1,0.05 0.7,0.1 h 0.05 q 2.55,0.3 4.2,2.2 l 1.2,1.75 0.1,0.25 0.05,0.2 0.7,2.05 0.85,2.8 v 5.7 q 0.05,-1.65 1.2,-2.75 l 0.05,-0.05 q 1.25,-1.15 2.85,-1.15 1.7,0 2.9,1.2 1.15,1.15 1.15,2.85 v 2.9 q 1.35,2 1.35,4.3 0,2.35 -1.35,4.4 v 2.95 q 0,1.7 -1.15,2.9 l 0.05,-0.1 q -1.25,1.3 -2.95,1.3 -1.65,0.05 -2.9,-1.2 -1.15,-1.15 -1.2,-2.8 v 6.25 l -1.1,3.35 -0.4,1.1 q -0.05,0.5 -0.5,1.05 l -0.9,1.25 q -1.6,1.9 -4.05,2.5 h -0.1 l -0.5,0.1 v 0.05 l -2.05,0.35 0.25,-2 v -0.05 l 1.4,-0.3 0.5,-0.1 q 2.5,-0.65 3.9,-3.1 l 0.05,-0.1 0.6,-1.6 q 1.6,-4.4 2.3,-8.9 h 0.25 l 0.35,-0.1 v 0.05 l 0.35,-0.1 1.65,-0.55 v 0.75 q 0,0.85 0.6,1.45 0.65,0.65 1.5,0.65 0.85,0 1.45,-0.65 0.6,-0.6 0.6,-1.45 v -3.65 q 1.35,-1.7 1.35,-3.7 0,-1.95 -1.35,-3.65 v -3.55 q 0,-0.85 -0.6,-1.45 -0.6,-0.6 -1.45,-0.6 -0.85,0 -1.5,0.6 -0.6,0.6 -0.6,1.45 v 0.65 l -1.65,-0.55 h -0.35 v -0.1 l -0.35,-0.1 -0.25,-0.05 -0.15,0.05 q -0.7,-4.15 -2.15,-8.35 l -0.6,-1.7 v -0.05 q -1.3,-2.55 -3.9,-2.9 l -0.75,-0.1 -8.45,-0.65 0.5,-1.95"
       id="path3879" />
    <path
       stroke="none"
       fill="#d0d3e5"
       d="m 281.8,327.95 -0.5,1.95 -1.45,5.3 3.5,13 h -3 l -1.85,-6.85 -0.15,-0.6 -1.4,5.3 -0.3,1.15 -0.3,1 h -2.95 l 0.3,-1.2 0.3,-1.15 2.85,-10.65 -0.65,-2.5 -1.15,-4.25 -2.05,-7.8 3.05,0.25 2.3,8.7 2.2,-8.2 0.65,0.05 2.3,0.25 -1.7,6.25 m -30.45,-7.25 2.9,-0.2 2.45,9.1 2.5,-9.3 3,-0.05 -2.35,8.75 -1.1,4.25 -0.55,1.95 2.6,9.75 0.3,1.1 0.6,2.15 h -3 l -0.65,-2.35 -0.25,-1.1 -1.1,-4 -1.05,3.85 -0.25,1.05 -0.7,2.55 h -2.95 l 0.75,-2.8 0.25,-1 2.45,-9.2 -1.6,-6 -2.25,-8.5 m 48.55,23.7 v -0.65 q 0,-0.85 0.6,-1.45 0.65,-0.6 1.5,-0.6 0.85,0 1.45,0.6 0.6,0.6 0.6,1.45 v 3.55 7.35 3.65 q 0,0.85 -0.6,1.45 -0.6,0.65 -1.45,0.65 -0.85,0 -1.5,-0.65 -0.6,-0.6 -0.6,-1.45 v -0.75 -13.15 m 0.95,-0.65 v 7.35 h 2.4 v -7.35 l -0.35,-0.8 q -0.35,-0.35 -0.85,-0.3 -0.45,0 -0.85,0.35 -0.3,0.3 -0.35,0.75"
       id="path3881" />
    <path
       stroke="none"
       fill="#b1b4c9"
       d="m 254.25,320.5 4.95,-0.2 -2.5,9.3 -2.45,-9.1 m 7.95,-0.25 10.8,0.4 2.05,7.8 q -0.35,0.05 -0.7,0.25 l -1.2,0.55 q -3,1.2 -7.15,1 -3.5,-0.15 -6.15,-1.25 l 2.35,-8.75 m 13.85,0.65 4.5,0.5 -2.2,8.2 -2.3,-8.7 m -12.3,1.35 -1.45,5.45 3.8,0.55 q 3.45,0.15 6,-0.7 l 0.3,-0.15 h 0.1 l 0.2,-0.1 -1.25,-4.75 -7.7,-0.3"
       id="path3883" />
    <path
       stroke="none"
       fill="#f5d657"
       d="m 241.25,366.1 -0.55,-0.55 h -0.15 l 0.15,-0.8 q 0.65,-2.4 2.8,-3.65 1.3,-0.8 2.75,-0.8 l -1.85,-2.95 q -4.1,-7.4 -9.75,-13.3 l 17.85,1.35 -0.75,2.8 h -3.25 q -2.1,0 -3.6,1.5 -0.7,0.7 -1.05,1.55 -0.5,1.6 0.45,3.55 l 0.6,0.7 q 1.5,1.55 3.6,1.65 l 7.45,-0.55 -4.65,6.15 0.35,0.5 0.75,2.15 5.95,-8.85 20.5,0.85 -0.65,6.6 q -3.4,0 -5.85,2.4 -2.4,2.45 -2.4,5.85 v 0.35 l -1.95,-0.3 -7.65,-1.8 q -4.35,-1.25 -7.9,-3.8 l -0.2,1.15 -0.25,0.75 -0.15,-0.05 -0.9,0.2 h -0.8 l -2.35,-0.2 -1.8,-0.45 -2,-0.6 -2,-0.9 -0.75,-0.5 m -7.5,-22.95 -3.7,-3.4 11.4,-1.6 q 1.1,-0.15 1.85,-0.95 0.75,-0.75 0.75,-1.75 0.05,-1 -0.6,-1.65 -0.7,-0.7 -1.75,-0.7 l -11.9,0.05 q -2.1,0 -3.65,1.1 -0.8,0.55 -1.2,1.25 -1.25,-1.55 -2,-3.3 l -0.75,-2.25 q -0.6,-2.7 0.75,-4.4 1.15,-1.4 3.7,-2.05 8.45,-2.1 15.9,6.05 l 11.05,-0.35 1.6,6 -2.45,9.2 -19,-1.25 m 27.05,1.8 -2.6,-9.75 0.55,-1.95 q 3.05,1.15 7.05,1.35 5.25,0.25 9,-1.3 l 1.4,-0.6 0.65,2.5 -2.85,10.65 -13.2,-0.9 m 15.85,2.25 2.3,0.15 0.05,0.85 h -2.65 l 0.3,-1 m 2.25,-1.05 -1.95,-0.1 1.4,-5.3 0.15,0.6 0.4,4.8 m -5.5,2.05 h -9.5 l 1.2,-1.85 8.6,0.65 -0.3,1.2 m -11,0 h -0.7 l -0.6,-2.15 2.75,0.2 -1.45,1.95 m -3.7,0 h -4 l 0.7,-2.55 2.65,0.2 0.65,2.35 m -3.05,-3.6 1.05,-3.85 1.1,4 -2.15,-0.15 m 1.9,18.6 q -0.7,0 -1.25,0.55 -0.5,0.45 -0.5,1.15 l -0.05,0.1 q 0,0.7 0.45,1.2 l 0.1,0.1 q 0.55,0.55 1.25,0.55 0.7,0 1.2,-0.5 l 0.1,-0.05 q 0.5,-0.55 0.5,-1.3 0,-0.75 -0.5,-1.25 -0.5,-0.55 -1.3,-0.55"
       id="path3885" />
    <path
       stroke="none"
       fill="#3d3d3d"
       d="m 276.2,332.7 -1.4,0.6 q -3.75,1.55 -9,1.3 -4,-0.2 -7.05,-1.35 l 1.1,-4.25 q 2.65,1.1 6.15,1.25 4.15,0.2 7.15,-1 l 1.2,-0.55 q 0.35,-0.2 0.7,-0.25 l 1.15,4.25 m 2,31.3 q 3.45,0 5.85,2.4 2.45,2.45 2.45,5.85 v 0.45 q -0.15,3.15 -2.45,5.4 -2.4,2.45 -5.85,2.45 -3.4,0 -5.85,-2.45 -2.3,-2.3 -2.4,-5.5 v -0.35 q 0,-3.4 2.4,-5.85 2.45,-2.4 5.85,-2.4 m -30.4,4.55 2.35,0.2 h 0.8 q -0.35,1.4 -1.4,2.5 -1.45,1.5 -3.55,1.5 -2.1,0 -3.55,-1.5 -1.45,-1.45 -1.45,-3.55 0,-0.85 0.25,-1.6 l 0.75,0.5 2,0.9 v 0.2 q 0,0.8 0.55,1.45 0.6,0.6 1.45,0.6 0.85,0 1.4,-0.6 l 0.4,-0.6 m 30.4,2.05 q -0.65,0 -1.15,0.5 l -0.1,0.15 -0.15,0.2 q -0.25,0.35 -0.25,0.8 l 0.05,0.4 v 0.05 l 0.25,0.5 0.2,0.25 q 0.5,0.45 1.15,0.45 0.7,0 1.2,-0.45 l 0.2,-0.2 0.2,-0.6 0.05,-0.4 -0.2,-0.75 -0.25,-0.4 q -0.5,-0.5 -1.2,-0.5"
       id="path3887" />
    <path
       stroke="none"
       fill="#ffe47b"
       d="m 234.65,344.05 -0.9,-0.9 19,1.25 -0.25,1 -17.85,-1.35 m 26.15,0.9 13.2,0.9 -0.3,1.15 -8.6,-0.65 -1.2,1.85 h -1.5 l 1.45,-1.95 -2.75,-0.2 -0.3,-1.1 m 15.85,2.25 0.3,-1.15 1.95,0.1 0.05,1.2 -2.3,-0.15 m -20.7,9.4 2.4,-0.05 -5.95,8.85 -0.75,-2.15 -0.35,-0.5 4.65,-6.15 m -0.3,-12 2.15,0.15 0.25,1.1 -2.65,-0.2 0.25,-1.05"
       id="path3889" />
    <path
       stroke="none"
       fill="#989aa7"
       d="m 278.95,347.35 -0.05,-1.2 -0.4,-4.8 1.85,6.85 H 279 l -0.05,-0.85"
       id="path3891" />
    <path
       stroke="none"
       fill="#fadc67"
       d="m 257.55,363.2 q 0.8,0 1.3,0.55 0.5,0.5 0.5,1.25 0,0.75 -0.5,1.3 l -0.1,0.05 q -0.5,0.5 -1.2,0.5 -0.7,0 -1.25,-0.55 l -0.1,-0.1 q -0.45,-0.5 -0.45,-1.2 l 0.05,-0.1 q 0,-0.7 0.5,-1.15 0.55,-0.55 1.25,-0.55"
       id="path3893" />
    <path
       stroke="none"
       fill="#1c1c1c"
       d="m 239.05,366.85 2.2,-0.75 q -0.25,0.75 -0.25,1.6 0,2.1 1.45,3.55 1.45,1.5 3.55,1.5 2.1,0 3.55,-1.5 1.05,-1.1 1.4,-2.5 l 1.7,1.65 -0.15,0.1 -0.05,0.05 -1.45,2.1 q -2.05,2.1 -5,2.1 -2.95,0 -4.95,-2.05 L 241,372.65 q -2,-2.05 -2,-4.95 l 0.05,-0.85 m 49.25,7.55 v 0.05 q -0.6,2.85 -2.8,5.05 l -0.05,0.05 q -3,3 -7.25,3 -4.25,0 -7.25,-3 -2.15,-2.15 -2.75,-4.95 l -0.05,-0.25 H 268 v -2.05 l 1.95,0.3 q 0.1,3.2 2.4,5.5 2.45,2.45 5.85,2.45 3.45,0 5.85,-2.45 2.3,-2.25 2.45,-5.4 l 2.05,-0.3 -0.25,2"
       id="path3895" />
    <path
       stroke="none"
       fill="#f4f4f4"
       d="m 244,367.5 2,0.6 1.8,0.45 -0.4,0.6 q -0.55,0.6 -1.4,0.6 -0.85,0 -1.45,-0.6 Q 244,368.5 244,367.7 v -0.2 m 34.2,3.1 q 0.7,0 1.2,0.5 l 0.25,0.4 0.2,0.75 -0.05,0.4 -0.2,0.6 -0.2,0.2 q -0.5,0.45 -1.2,0.45 -0.65,0 -1.15,-0.45 l -0.2,-0.25 -0.25,-0.5 v -0.05 l -0.05,-0.4 q 0,-0.45 0.25,-0.8 l 0.15,-0.2 0.1,-0.15 q 0.5,-0.5 1.15,-0.5"
       id="path3897" />
    <path
       stroke="none"
       fill="#f1cc36"
       d="m 297.15,343.65 0.15,-0.05 0.25,0.05 0.35,0.1 v 0.1 h 0.35 l 1.65,0.55 v 13.15 l -1.65,0.55 -0.35,0.1 v -0.05 l -0.35,0.1 h -0.25 q 0.7,-4.75 0.4,-9.5 l -0.55,-5.1 m 6.9,3.65 q 1.35,1.7 1.35,3.65 0,2 -1.35,3.7 v -7.35"
       id="path3899" />
    <path
       stroke="none"
       fill="#dfe1ee"
       d="m 300.85,343.75 q 0.05,-0.45 0.35,-0.75 0.4,-0.35 0.85,-0.35 0.5,-0.05 0.85,0.3 l 0.35,0.8 v 7.35 h -2.4 v -7.35"
       id="path3901" />
  </g>
</svg>
